# xmcd CD database file
#
# Track frame offsets:
#	150
#	4257
#	26582
#	45340
#	69597
#	94425
#	119805
#	147307
#	167930
#	188575
#	197727
#	222122
#	252235
#
# Disc length: 3701 seconds
#
# Revision: 0
# Processed by: cddbd v1.4PL0 Copyright (c) Steve Scherf et al.
# Submitted via: CDex 1.50beta10
#
DISCID=be0e730d
DTITLE=THE MIGHTY BOP - FEAT. DUNCAN ROY
DYEAR=2002
DGENRE=Jazz
TTITLE0=INTRO
TTITLE1=SUNSHINE MAGIC
TTITLE2=TOO DEEP
TTITLE3=TELL ME
TTITLE4=MY FANTASY
TTITLE5=SUMMER SESSION
TTITLE6=LADY
TTITLE7=FANTASIA
TTITLE8=I GO CRAZY
TTITLE9=WHAT NOW MY LOVE
TTITLE10=ON THE MOON
TTITLE11=LADY(COME WITH HERBERT'S MIX)
TTITLE12=LADY(TOM&JOYCE REMIX)
EXTD=YEAR: 2002
EXTT0=
EXTT1=
EXTT2=
EXTT3=
EXTT4=
EXTT5=
EXTT6=
EXTT7=
EXTT8=
EXTT9=
EXTT10=
EXTT11=
EXTT12=
PLAYORDER=
